<svg width="416" height="97" viewBox="0 0 416 97" fill="none" xmlns="http://www.w3.org/2000/svg">
<path d="M59.1842 20.6919C54.7235 20.6919 50.8799 21.8655 47.7433 24.1871C45.7122 25.6924 44.1568 27.5548 43.1155 29.7233C41.9971 27.5548 40.4931 25.7051 38.642 24.1999C35.7753 21.8655 32.0603 20.6919 27.5996 20.6919C23.486 20.6919 19.9895 21.6486 17.2385 23.5238C15.4645 24.7356 14.0376 26.075 12.9706 27.5293L12.765 26.3557C12.3536 23.9447 10.2583 22.1971 7.80296 22.1971H0V64.5735C0 69.0637 3.67652 72.712 8.20146 72.712H13.1121V44.1252C13.1121 41.5102 13.5748 39.3033 14.4875 37.594C15.4002 35.8846 16.6472 34.609 18.1898 33.8181C19.7581 33.0145 21.5063 32.5935 23.4089 32.5935C26.1984 32.5935 28.4737 33.4737 30.1577 35.2086C31.8417 36.9434 32.703 39.5457 32.703 42.9261V64.5863C32.703 69.0765 36.3795 72.7248 40.9045 72.7248H45.8151V44.138C45.8151 41.4591 46.2778 39.2395 47.1905 37.5557C48.1032 35.8846 49.3373 34.609 50.8542 33.7671C52.3839 32.9252 54.0936 32.5042 55.9062 32.5042C58.7729 32.5042 61.0867 33.3972 62.8093 35.1703C64.5319 36.9434 65.406 39.5967 65.406 43.0409V64.599C65.406 69.0893 69.0825 72.7376 73.6075 72.7376H78.4152V39.8136C78.4152 34.035 76.7441 29.3534 73.4404 25.9092C70.1366 22.4523 65.3289 20.7047 59.1585 20.7047L59.1842 20.6919Z" fill="url(#paint0_linear_5505_1056)"/>
<path d="M91.8893 38.8818C94.2675 38.8818 96.2986 37.4659 97.4427 35.3993C97.8797 34.6085 98.4968 33.9324 99.2938 33.3456C101.119 32.0062 103.806 31.3173 107.277 31.3173C109.256 31.3173 111.005 31.6235 112.47 32.223C113.884 32.7971 114.977 33.7283 115.748 34.9656C116.519 36.2285 116.918 37.9506 116.918 40.0809V40.5912L102.598 41.7392C96.5685 42.2112 91.8636 43.8695 88.5728 46.6376C85.2433 49.4568 83.5593 53.2709 83.5593 57.978C83.5593 62.685 85.1662 66.6523 88.3542 69.599C91.5165 72.5329 95.8487 74.0254 101.235 74.0254C105.22 74.0254 108.832 73.1962 111.969 71.5507C114.643 70.1475 116.622 68.3616 117.856 66.2441L119.386 69.4459C120.337 71.4486 122.368 72.7242 124.592 72.7242H130.21V42.0836C130.21 37.3893 129.297 33.4094 127.51 30.2203C125.711 27.0185 123.101 24.582 119.772 22.962C116.468 21.3547 112.483 20.551 107.907 20.551C103.33 20.551 99.3709 21.3036 95.9129 22.8089C92.4292 24.3141 89.6911 26.4572 87.7886 29.1743C85.8732 31.9041 84.8962 35.1697 84.8962 38.8818H91.915H91.8893ZM117.008 50.1711V52.0846C117.008 55.6818 115.941 58.5265 113.833 60.5292C111.712 62.532 108.794 63.5525 105.156 63.5525C102.623 63.5525 100.656 63.0295 99.3066 61.9835C97.9826 60.9757 97.3398 59.496 97.3398 57.4932C97.3398 55.6818 98.0469 54.2659 99.5123 53.1433C101.016 51.9953 103.652 51.2427 107.328 50.9237L117.021 50.1711H117.008Z" fill="url(#paint1_linear_5505_1056)"/>
<path d="M165.07 20.5388C161.625 20.5388 158.398 21.2659 155.468 22.7074C153.051 23.8937 151.058 25.4755 149.541 27.4145L149.361 26.2791C148.976 23.8172 146.868 22.0441 144.374 22.0441H136.121V64.6245C136.121 69.0892 139.772 72.712 144.271 72.712H149.696V45.4774C149.696 41.6505 150.724 38.5634 152.755 36.3056C154.773 34.0605 157.627 32.9252 161.239 32.9252C164.299 32.9252 166.651 33.8564 168.425 35.7698C170.186 37.6705 171.073 40.6427 171.073 44.5844V64.6373C171.073 69.102 174.724 72.7248 179.224 72.7248H184.648V41.6887C184.648 35.2341 182.99 30.0423 179.699 26.2791C176.395 22.4778 171.472 20.5643 165.057 20.5643L165.07 20.5388Z" fill="url(#paint2_linear_5505_1056)"/>
<path d="M190.801 74.9954C191.624 81.7307 194.413 87.267 199.092 91.1576C203.759 95.0355 209.8 97 217.038 97C222.565 97 227.373 95.8775 231.307 93.6706C235.266 91.451 238.364 88.2365 240.524 84.1034C242.683 79.9959 243.776 75.1102 243.776 69.5612V29.2131C243.776 25.2586 240.55 22.0441 236.552 22.0441H231.165L230.613 27.542C229.404 25.8965 227.875 24.506 226.036 23.3835C222.925 21.4955 219.146 20.5388 214.814 20.5388C210.006 20.5388 205.725 21.6869 202.075 23.932C198.437 26.1771 195.557 29.2769 193.526 33.1293C191.508 36.9689 190.479 41.3954 190.479 46.2683C190.479 51.1412 191.482 55.5548 193.475 59.3562C195.467 63.1831 198.295 66.2191 201.869 68.4004C205.443 70.5817 209.698 71.6915 214.505 71.6915C218.838 71.6915 222.707 70.7221 226.011 68.8086C227.682 67.8391 229.121 66.6783 230.278 65.3517V71.7553C230.278 75.6843 229.07 78.8478 226.692 81.1439C224.314 83.4401 221.049 84.6137 217.012 84.6137C213.348 84.6137 210.379 83.7462 208.194 82.0496C206.985 81.1184 206.06 79.9576 205.391 78.6054C204.273 76.3093 201.818 74.9699 199.259 74.9699H190.775L190.801 74.9954ZM204.17 45.9749C204.17 43.3598 204.684 40.9999 205.713 38.9589C206.728 36.9434 208.206 35.3361 210.109 34.1625C212.012 33.0017 214.3 32.4022 216.922 32.4022C219.673 32.4022 222.064 32.9762 224.005 34.1115C225.933 35.2468 227.425 36.8158 228.44 38.8058C229.469 40.8086 229.983 43.2195 229.983 45.9621C229.983 48.7047 229.443 51.1539 228.389 53.2204C227.348 55.2742 225.831 56.8942 223.89 58.0678C221.948 59.2286 219.609 59.8282 216.922 59.8282C214.377 59.8282 212.114 59.2286 210.212 58.0296C208.309 56.8305 206.805 55.1849 205.751 53.1311C204.697 51.0646 204.157 48.6537 204.157 45.9749H204.17Z" fill="url(#paint3_linear_5505_1056)"/>
<path d="M300.173 33.3716C297.846 29.3916 294.594 26.2281 290.506 23.983C286.431 21.7378 281.7 20.6025 276.443 20.6025C271.185 20.6025 266.532 21.7378 262.431 23.983C258.317 26.2281 255.039 29.3916 252.713 33.3716C250.386 37.3515 249.203 42.0203 249.203 47.2377C249.203 52.455 250.386 57.1238 252.713 61.1038C255.039 65.0837 258.317 68.2473 262.431 70.4924C266.544 72.7375 271.249 73.8728 276.443 73.8728C281.636 73.8728 286.431 72.7375 290.506 70.4924C294.594 68.2473 297.846 65.0837 300.173 61.1038C302.5 57.1238 303.682 52.455 303.682 47.2377C303.682 42.0203 302.5 37.3515 300.173 33.3716ZM269.373 34.5962C271.378 33.3971 273.756 32.7848 276.443 32.7848C279.129 32.7848 281.533 33.3971 283.577 34.5962C285.608 35.7953 287.228 37.4791 288.372 39.5967C289.529 41.727 290.108 44.3037 290.108 47.2504C290.108 50.1971 289.516 52.6846 288.372 54.8532C287.228 57.009 285.608 58.7056 283.577 59.9047C281.533 61.1038 279.142 61.7161 276.443 61.7161C273.743 61.7161 271.378 61.1038 269.373 59.9047C267.367 58.7056 265.747 56.9962 264.565 54.8404C263.382 52.6846 262.778 50.1206 262.778 47.2504C262.778 44.3803 263.382 41.7397 264.565 39.6094C265.747 37.4919 267.367 35.7953 269.373 34.5962Z" fill="url(#paint4_linear_5505_1056)"/>
<path opacity="0.3" d="M302.703 55.019C303.358 52.5953 303.693 50.0058 303.693 47.2504C303.693 42.0331 302.51 37.3643 300.183 33.3843C297.856 29.4044 294.604 26.2408 290.516 23.9957C287.804 22.5032 284.796 21.5082 281.556 21.0107V33.1292C281.556 33.3206 281.582 33.4991 281.582 33.6905C282.276 33.9456 282.958 34.239 283.587 34.6089C285.619 35.808 287.238 37.4919 288.382 39.6094C289.539 41.7397 290.118 44.3165 290.118 47.2632C290.118 48.3092 290.015 49.3042 289.861 50.2609C293.409 53.08 297.856 54.8277 302.703 55.0318V55.019Z" fill="#665966"/>
<path d="M284.108 19.3779H285.42C296.501 19.3779 305.486 28.2946 305.486 39.2905V52.5188H304.831C293.39 52.5188 284.108 43.3215 284.108 31.9556V19.3779Z" fill="url(#paint5_linear_5505_1056)"/>
<path d="M411.123 27.7655C407.851 23.9891 403.037 22.0882 396.823 22.0882C393.143 22.0882 389.833 22.8359 386.993 24.2933C384.79 25.4338 382.944 26.8911 381.479 28.6273V7.40076C381.479 3.32021 378.156 0 374.043 0H367.931V66.4168C367.931 70.5607 371.305 73.9062 375.456 73.9062H381.378V46.4575C381.378 44.1131 381.836 42.0095 382.753 40.1846C383.657 38.3851 384.994 36.9531 386.7 35.9267C388.419 34.9002 390.507 34.3806 392.914 34.3806C394.85 34.3806 396.556 34.7988 397.982 35.6352C399.395 36.4589 400.516 37.7262 401.318 39.3863C402.133 41.0844 402.553 43.2894 402.553 45.9633V66.4168C402.553 70.5607 405.928 73.9062 410.079 73.9062H416V43.074C416 36.6617 414.357 31.5039 411.11 27.7655H411.123Z" fill="url(#paint6_linear_5505_1056)"/>
<path d="M359.6 33.4988C357.274 29.5188 354.021 26.3553 349.934 24.1102C345.859 21.865 341.128 20.7297 335.87 20.7297C330.613 20.7297 325.959 21.865 321.858 24.1102C317.745 26.3553 314.467 29.5188 312.14 33.4988C309.813 37.4787 308.631 42.1475 308.631 47.3649C308.631 52.5822 309.813 57.251 312.14 61.231C314.467 65.2109 317.745 68.3745 321.858 70.6196C325.972 72.8647 330.677 74 335.87 74C341.064 74 345.859 72.8647 349.934 70.6196C354.021 68.3745 357.274 65.2109 359.6 61.231C361.927 57.251 363.11 52.5822 363.11 47.3649C363.11 42.1475 361.927 37.4787 359.6 33.4988ZM328.8 34.7234C330.805 33.5243 333.184 32.912 335.87 32.912C338.557 32.912 340.961 33.5243 343.005 34.7234C345.036 35.9225 346.656 37.6063 347.8 39.7239C348.957 41.8542 349.535 44.4309 349.535 47.3776C349.535 50.3243 348.944 52.8118 347.8 54.9804C346.656 57.1362 345.036 58.8328 343.005 60.0319C340.961 61.231 338.57 61.8433 335.87 61.8433C333.171 61.8433 330.805 61.231 328.8 60.0319C326.795 58.8328 325.175 57.1234 323.992 54.9676C322.81 52.8118 322.205 50.2478 322.205 47.3776C322.205 44.5075 322.81 41.8669 323.992 39.7366C325.175 37.6191 326.795 35.9225 328.8 34.7234Z" fill="url(#paint7_linear_5505_1056)"/>
<defs>
<linearGradient id="paint0_linear_5505_1056" x1="39.2205" y1="136.659" x2="39.2205" y2="14.6837" gradientUnits="userSpaceOnUse">
<stop stop-color="#FFD13F"/>
<stop offset="0.26" stop-color="#FFA43F"/>
<stop offset="1" stop-color="#FF0066"/>
</linearGradient>
<linearGradient id="paint1_linear_5505_1056" x1="106.865" y1="136.659" x2="106.865" y2="14.6831" gradientUnits="userSpaceOnUse">
<stop stop-color="#FFD13F"/>
<stop offset="0.26" stop-color="#FFA43F"/>
<stop offset="1" stop-color="#FF0066"/>
</linearGradient>
<linearGradient id="paint2_linear_5505_1056" x1="160.391" y1="136.659" x2="160.391" y2="14.6837" gradientUnits="userSpaceOnUse">
<stop stop-color="#FFD13F"/>
<stop offset="0.26" stop-color="#FFA43F"/>
<stop offset="1" stop-color="#FF0066"/>
</linearGradient>
<linearGradient id="paint3_linear_5505_1056" x1="217.128" y1="136.659" x2="217.128" y2="14.6837" gradientUnits="userSpaceOnUse">
<stop stop-color="#FFD13F"/>
<stop offset="0.26" stop-color="#FFA43F"/>
<stop offset="1" stop-color="#FF0066"/>
</linearGradient>
<linearGradient id="paint4_linear_5505_1056" x1="276.443" y1="144.925" x2="276.443" y2="15.7807" gradientUnits="userSpaceOnUse">
<stop stop-color="#FFD13F"/>
<stop offset="0.26" stop-color="#FFA43F"/>
<stop offset="1" stop-color="#FF0066"/>
</linearGradient>
<linearGradient id="paint5_linear_5505_1056" x1="305.191" y1="24.1488" x2="283.935" y2="48.6373" gradientUnits="userSpaceOnUse">
<stop stop-color="#80FF7C"/>
<stop offset="1" stop-color="#33CC99"/>
</linearGradient>
<linearGradient id="paint6_linear_5505_1056" x1="391.972" y1="144.48" x2="391.972" y2="16.1828" gradientUnits="userSpaceOnUse">
<stop stop-color="#FFD13F"/>
<stop offset="0.26" stop-color="#FFA43F"/>
<stop offset="1" stop-color="#FF0066"/>
</linearGradient>
<linearGradient id="paint7_linear_5505_1056" x1="335.87" y1="145.053" x2="335.87" y2="15.9079" gradientUnits="userSpaceOnUse">
<stop stop-color="#FFD13F"/>
<stop offset="0.26" stop-color="#FFA43F"/>
<stop offset="1" stop-color="#FF0066"/>
</linearGradient>
</defs>
</svg>
