<svg width="325" height="46" viewBox="0 0 325 46" fill="none" xmlns="http://www.w3.org/2000/svg">
<g clip-path="url(#clip0_8253_23)">
<path d="M27.4399 9.9858C25.3721 9.9858 23.5885 10.542 22.1353 11.6363C21.1937 12.3468 20.4725 13.2223 19.9893 14.2485C19.467 13.2295 18.7706 12.354 17.9143 11.6435C16.5855 10.5456 14.8623 9.9858 12.7908 9.9858C10.8829 9.9858 9.26626 10.4343 7.98717 11.3242C7.16643 11.8947 6.50557 12.5298 6.00814 13.2151L5.91577 12.659C5.7239 11.5215 4.75748 10.6998 3.61341 10.6998H0V30.6966C0 32.8136 1.70545 34.5359 3.80172 34.5359H6.07921V21.048C6.07921 19.8137 6.29594 18.7768 6.71875 17.9622C7.14156 17.1585 7.7207 16.5557 8.43841 16.1789C9.16322 15.7986 9.97686 15.6048 10.858 15.6048C12.1549 15.6048 13.2065 16.0211 13.9882 16.8392C14.7699 17.6573 15.1643 18.8844 15.1643 20.4811V30.7002C15.1643 32.8172 16.8697 34.5395 18.966 34.5395H21.247V21.0516C21.247 19.785 21.4602 18.7409 21.8866 17.9443C22.3094 17.1549 22.8814 16.5521 23.5849 16.1574C24.2955 15.7591 25.0843 15.5582 25.9299 15.5582C27.2587 15.5582 28.3353 15.9816 29.1312 16.814C29.927 17.6501 30.3321 18.8988 30.3321 20.5278V30.7002C30.3321 32.8172 32.0375 34.5395 34.1338 34.5395H36.3651V19.0064C36.3651 16.2794 35.5905 14.0727 34.0592 12.4437C32.5243 10.8147 30.2965 9.98939 27.4364 9.98939L27.4399 9.9858Z" fill="white"/>
<path d="M43.8266 18.5722C44.928 18.5722 45.8732 17.9048 46.4026 16.9325C46.6051 16.5593 46.8893 16.2364 47.2588 15.9601C48.1044 15.325 49.3515 15.0056 50.9575 15.0056C51.8777 15.0056 52.6878 15.1491 53.3665 15.4326C54.0202 15.7053 54.5283 16.1395 54.8836 16.7279C55.2424 17.3236 55.4236 18.1345 55.4236 19.1427V19.3832L48.7831 19.925C45.9904 20.151 43.8053 20.9261 42.2846 22.2357C40.7426 23.5633 39.9609 25.361 39.9609 27.5856C39.9609 29.8103 40.7071 31.6761 42.1816 33.0647C43.649 34.4498 45.6564 35.1495 48.1542 35.1495C50.0017 35.1495 51.6752 34.7583 53.1284 33.9833C54.372 33.3231 55.2851 32.4799 55.8571 31.4824L56.5642 32.993C57.0047 33.9367 57.9463 34.5395 58.9802 34.5395H61.581V20.0864C61.581 17.8725 61.1582 15.9924 60.3268 14.4889C59.4918 12.9783 58.2838 11.8265 56.7418 11.0622C55.2105 10.3052 53.3594 9.92122 51.2382 9.92122C49.1171 9.92122 47.2801 10.28 45.6777 10.9833C44.0611 11.6938 42.7927 12.7056 41.908 13.9902C41.0197 15.2783 40.5685 16.8212 40.5685 18.5722H43.8266ZM55.4734 23.897V24.7977C55.4734 26.4949 54.9795 27.8368 53.9989 28.7805C53.0183 29.7278 51.6646 30.2086 49.9769 30.2086C48.8044 30.2086 47.8913 29.961 47.2624 29.4694C46.6477 28.9922 46.3493 28.2961 46.3493 27.3488C46.3493 26.4949 46.6797 25.8275 47.3548 25.3C48.0511 24.7582 49.2734 24.403 50.9788 24.2523L55.4698 23.9006L55.4734 23.897Z" fill="white"/>
<path d="M78.2763 9.91763C76.681 9.91763 75.1816 10.2621 73.8244 10.9402C72.7016 11.5 71.7814 12.2427 71.0744 13.1613L70.9926 12.6267C70.8114 11.4677 69.8379 10.6281 68.6796 10.6281H64.853V30.7217C64.853 32.8243 66.5478 34.5359 68.6299 34.5359H71.1454V21.6867C71.1454 19.8819 71.6215 18.4251 72.5666 17.3558C73.5011 16.2973 74.8228 15.7591 76.5034 15.7591C77.9246 15.7591 79.0153 16.1969 79.8361 17.1011C80.6533 17.9981 81.0654 19.4011 81.0654 21.2597V30.7181C81.0654 32.8207 82.7602 34.5323 84.8458 34.5323H87.3614V19.8891C87.3614 16.8427 86.5904 14.3956 85.0697 12.6159C83.5383 10.8254 81.2537 9.91763 78.2799 9.91763H78.2763Z" fill="white"/>
<path d="M90.0581 35.6123C90.4383 38.7914 91.7316 41.4072 93.8989 43.2407C96.0627 45.0707 98.8589 46 102.22 46C104.782 46 107.01 45.4725 108.836 44.4284C110.669 43.3807 112.108 41.8629 113.11 39.9181C114.108 37.9805 114.617 35.6733 114.617 33.0576V14.0117C114.617 12.1459 113.117 10.6317 111.27 10.6317H108.772L108.516 13.2259C107.958 12.4473 107.248 11.7906 106.395 11.2632C104.952 10.3733 103.201 9.92122 101.193 9.92122C98.9655 9.92122 96.9794 10.4594 95.2882 11.5251C93.6005 12.5872 92.2681 14.0476 91.3266 15.8632C90.3886 17.6752 89.916 19.7635 89.916 22.0671C89.916 24.3707 90.385 26.4482 91.3052 28.2423C92.229 30.0435 93.5401 31.4824 95.1993 32.5122C96.8586 33.542 98.827 34.0658 101.055 34.0658C103.062 34.0658 104.856 33.6066 106.391 32.7023C107.169 32.2431 107.834 31.6977 108.374 31.0697V34.0945C108.374 35.9496 107.816 37.4423 106.711 38.5259C105.606 39.6131 104.096 40.1621 102.224 40.1621C100.525 40.1621 99.1467 39.7566 98.1341 38.9529C97.5763 38.5115 97.1428 37.9697 96.8373 37.331C96.3221 36.251 95.1816 35.6159 93.9949 35.6159H90.0617L90.0581 35.6123ZM96.2581 21.92C96.2581 20.6857 96.4997 19.5697 96.9759 18.6117C97.4448 17.6608 98.1306 16.9002 99.0153 16.3512C99.8964 15.8022 100.959 15.5223 102.174 15.5223C103.453 15.5223 104.558 15.795 105.457 16.3296C106.352 16.8643 107.045 17.607 107.514 18.5435C107.99 19.4872 108.228 20.6247 108.228 21.9236C108.228 23.2225 107.98 24.3743 107.489 25.3502C107.002 26.3154 106.303 27.0869 105.404 27.6359C104.505 28.1849 103.417 28.4647 102.17 28.4647C100.987 28.4647 99.9426 28.1777 99.0579 27.6144C98.1732 27.051 97.4804 26.2724 96.9901 25.3036C96.4997 24.3276 96.251 23.1938 96.251 21.9236L96.2581 21.92Z" fill="white"/>
<path d="M141.044 15.9888C139.964 14.1086 138.454 12.6195 136.564 11.561C134.674 10.5025 132.481 9.96428 130.044 9.96428C127.607 9.96428 125.45 10.4989 123.546 11.5574C121.638 12.6159 120.12 14.1086 119.04 15.9852C117.96 17.8618 117.413 20.0649 117.413 22.53C117.413 24.995 117.96 27.1981 119.04 29.0747C120.12 30.9549 121.638 32.444 123.546 33.5025C125.45 34.561 127.635 35.0956 130.044 35.0956C132.453 35.0956 134.677 34.5574 136.564 33.5025C138.458 32.4404 139.964 30.9513 141.044 29.0747C142.124 27.1945 142.675 24.995 142.675 22.53C142.675 20.0649 142.128 17.8654 141.044 15.9852V15.9888ZM126.761 16.5629C127.692 15.9959 128.797 15.7089 130.04 15.7089C131.284 15.7089 132.4 15.9959 133.345 16.5629C134.29 17.1298 135.04 17.9228 135.569 18.9239C136.102 19.9286 136.376 21.1449 136.376 22.5335C136.376 23.9222 136.105 25.0991 135.569 26.1181C135.036 27.1335 134.29 27.9337 133.345 28.5006C132.4 29.0676 131.288 29.3546 130.04 29.3546C128.793 29.3546 127.688 29.0676 126.761 28.5006C125.83 27.9337 125.08 27.13 124.533 26.1145C123.983 25.0955 123.705 23.8899 123.705 22.53C123.705 21.1701 123.983 19.9286 124.533 18.9239C125.08 17.9228 125.83 17.1262 126.761 16.5593V16.5629Z" fill="white"/>
<path opacity="0.2" d="M142.213 26.2006C142.515 25.056 142.671 23.8324 142.671 22.5335C142.671 20.0685 142.124 17.869 141.04 15.9888C139.96 14.1086 138.45 12.6195 136.56 11.561C135.302 10.8577 133.909 10.3913 132.403 10.1509V15.8668C132.403 15.9565 132.413 16.0426 132.417 16.1287C132.74 16.2507 133.053 16.3906 133.344 16.5629C134.289 17.1298 135.039 17.9228 135.569 18.9239C136.102 19.9285 136.375 21.1449 136.375 22.5335C136.375 23.0287 136.325 23.4952 136.254 23.9473C137.899 25.2785 139.96 26.1002 142.213 26.197V26.2006Z" fill="#665966"/>
<path d="M133.597 9.383H134.204C139.342 9.383 143.506 13.5883 143.506 18.7768V25.0165H143.204C137.899 25.0165 133.6 20.6749 133.6 15.3178V9.383H133.597Z" fill="url(#paint0_linear_8253_23)"/>
<path d="M168.768 15.9888C167.688 14.1086 166.178 12.6195 164.288 11.561C162.398 10.5025 160.206 9.96428 157.768 9.96428C155.331 9.96428 153.174 10.4989 151.27 11.5574C149.362 12.6159 147.845 14.1086 146.764 15.9852C145.684 17.8618 145.137 20.0649 145.137 22.53C145.137 24.995 145.684 27.1981 146.764 29.0747C147.845 30.9549 149.362 32.444 151.27 33.5025C153.174 34.561 155.359 35.0956 157.768 35.0956C160.177 35.0956 162.401 34.5574 164.288 33.5025C166.182 32.4404 167.688 30.9513 168.768 29.0747C169.848 27.1945 170.399 24.995 170.399 22.53C170.399 20.0649 169.852 17.8654 168.768 15.9852V15.9888ZM154.485 16.5629C155.416 15.9959 156.521 15.7089 157.765 15.7089C159.008 15.7089 160.124 15.9959 161.069 16.5629C162.014 17.1298 162.764 17.9228 163.293 18.9239C163.826 19.9286 164.1 21.1449 164.1 22.5335C164.1 23.9222 163.83 25.0991 163.293 26.1181C162.76 27.1335 162.014 27.9337 161.069 28.5006C160.124 29.0676 159.012 29.3546 157.765 29.3546C156.518 29.3546 155.413 29.0676 154.485 28.5006C153.554 27.9337 152.805 27.13 152.257 26.1145C151.707 25.0955 151.43 23.8899 151.43 22.53C151.43 21.1701 151.707 19.9286 152.257 18.9239C152.805 17.9228 153.554 17.1262 154.485 16.5593V16.5629Z" fill="white"/>
<path d="M192.708 13.1828C191.177 11.3924 188.924 10.4846 186.014 10.4846C184.291 10.4846 182.746 10.8362 181.417 11.5323C180.383 12.0741 179.519 12.763 178.837 13.5919V3.51279C178.837 1.57161 177.281 0 175.359 0H172.495V31.5434C172.495 33.5097 174.073 35.1028 176.02 35.1028H178.791V22.0635C178.791 20.9512 179.008 19.9501 179.438 19.0853C179.861 18.2278 180.486 17.5496 181.289 17.0616C182.095 16.5736 183.072 16.3261 184.195 16.3261C185.101 16.3261 185.901 16.527 186.569 16.9217C187.229 17.3128 187.755 17.912 188.132 18.705C188.516 19.5087 188.711 20.5601 188.711 21.8303V31.547C188.711 33.5133 190.289 35.1064 192.236 35.1064H195.007V20.4632C195.007 17.4168 194.236 14.9697 192.715 13.19L192.708 13.1828Z" fill="white"/>
</g>
<g clip-path="url(#clip1_8253_23)">
<path d="M226.759 9.18098V19.3263H225.734V9.18098H226.749H226.759ZM231.715 10.1161H225.774V9.18098H231.705V10.1161H231.715ZM230.911 14.862H225.774V13.9369H230.901V14.862H230.911Z" fill="white"/>
<path d="M236.017 12.3885V13.2633H235.475C234.841 13.2633 234.339 13.4543 233.967 13.8464C233.595 14.2285 233.404 14.7614 233.404 15.415V19.3263H232.429V12.4689H233.354L233.434 13.8163H233.333C233.424 13.3739 233.655 13.0119 234.027 12.7303C234.399 12.4488 234.841 12.308 235.374 12.308C235.475 12.308 235.585 12.308 235.686 12.3181C235.786 12.3282 235.897 12.3483 236.007 12.3784L236.017 12.3885Z" fill="white"/>
<path d="M239.576 19.4973C238.912 19.4973 238.329 19.3464 237.827 19.0448C237.324 18.7431 236.932 18.3208 236.64 17.7879C236.359 17.245 236.218 16.6216 236.218 15.9077C236.218 15.1938 236.359 14.5704 236.64 14.0274C236.922 13.4845 237.304 13.0622 237.796 12.7505C238.289 12.4388 238.862 12.2879 239.515 12.2879C240.169 12.2879 240.681 12.4287 241.154 12.7002C241.626 12.9717 241.988 13.3537 242.24 13.8364C242.501 14.319 242.632 14.8921 242.632 15.5457V16.0283H236.771L236.801 15.3144H241.657C241.657 14.6508 241.455 14.1179 241.074 13.7258C240.681 13.3236 240.169 13.1225 239.525 13.1225C239.053 13.1225 238.641 13.2331 238.289 13.4442C237.937 13.6654 237.666 13.9671 237.475 14.3693C237.284 14.7715 237.193 15.2441 237.193 15.7971C237.193 16.702 237.404 17.4058 237.827 17.9086C238.249 18.4113 238.842 18.6627 239.616 18.6627C240.169 18.6627 240.631 18.542 240.993 18.3108C241.355 18.0795 241.596 17.7276 241.717 17.2751H242.652C242.471 17.989 242.119 18.542 241.606 18.9241C241.084 19.3062 240.42 19.4973 239.606 19.4973H239.576Z" fill="white"/>
<path d="M243.245 17.4058H244.18C244.18 17.798 244.321 18.1197 244.602 18.351C244.883 18.5823 245.265 18.7029 245.738 18.7029C246.271 18.7029 246.683 18.5923 246.974 18.3812C247.266 18.17 247.417 17.8784 247.417 17.5064C247.417 17.2249 247.336 16.9936 247.175 16.8227C247.015 16.6517 246.733 16.521 246.321 16.4104L245.145 16.1088C244.552 15.958 244.109 15.7267 243.818 15.415C243.526 15.1033 243.376 14.7212 243.376 14.2486C243.376 13.8565 243.476 13.5046 243.687 13.2029C243.898 12.9013 244.19 12.6801 244.562 12.5192C244.934 12.3583 245.366 12.2779 245.859 12.2779C246.351 12.2779 246.763 12.3583 247.115 12.5292C247.467 12.7002 247.758 12.9415 247.959 13.2431C248.16 13.5548 248.271 13.9168 248.281 14.3391H247.336C247.336 13.9369 247.185 13.6252 246.924 13.404C246.663 13.1828 246.301 13.0823 245.838 13.0823C245.376 13.0823 244.984 13.1828 244.723 13.3839C244.461 13.585 244.331 13.8665 244.331 14.2386C244.331 14.7715 244.702 15.1234 245.446 15.3144L246.622 15.6161C247.216 15.7669 247.658 15.9881 247.929 16.2797C248.211 16.5713 248.351 16.9634 248.351 17.4561C248.351 17.8583 248.241 18.2203 248.03 18.532C247.809 18.8437 247.507 19.085 247.115 19.2459C246.723 19.4068 246.271 19.4973 245.748 19.4973C244.984 19.4973 244.371 19.3062 243.918 18.9241C243.466 18.542 243.235 18.0292 243.235 17.4058H243.245Z" fill="white"/>
<path d="M250.593 19.3163H249.618V9H250.593V13.6654C250.814 13.2532 251.126 12.9214 251.538 12.67C251.95 12.4186 252.443 12.298 253.016 12.298C253.921 12.298 254.584 12.5594 254.996 13.0722C255.408 13.585 255.619 14.2788 255.619 15.1435V19.3364H254.644V15.3547C254.644 14.8117 254.564 14.3894 254.413 14.0676C254.262 13.7559 254.051 13.5247 253.78 13.3839C253.508 13.2431 253.187 13.1828 252.835 13.1828C252.342 13.1828 251.93 13.2934 251.598 13.5046C251.267 13.7258 251.015 14.0073 250.845 14.3793C250.674 14.7413 250.593 15.1435 250.593 15.596V19.3263V19.3163Z" fill="white"/>
<path d="M264.093 19.3263H261.007V9.18098H264.063C265.078 9.18098 265.973 9.39214 266.737 9.81444C267.501 10.2367 268.094 10.83 268.526 11.5941C268.959 12.3583 269.16 13.2431 269.16 14.2486C269.16 15.2541 268.949 16.149 268.526 16.9031C268.104 17.6572 267.511 18.2605 266.757 18.6828C265.993 19.1051 265.109 19.3163 264.083 19.3163L264.093 19.3263ZM262.023 9.66362V18.8437L261.55 18.3912H264.043C264.877 18.3912 265.591 18.2203 266.194 17.8784C266.797 17.5366 267.27 17.064 267.602 16.4406C267.933 15.8172 268.104 15.0932 268.104 14.2486C268.104 13.404 267.933 12.6801 267.602 12.0567C267.27 11.4333 266.797 10.9506 266.184 10.6188C265.571 10.287 264.847 10.1161 264.013 10.1161H261.55L262.023 9.66362Z" fill="white"/>
<path d="M272.407 19.4973C271.683 19.4973 271.11 19.3062 270.698 18.9342C270.286 18.5622 270.084 18.0695 270.084 17.4762C270.084 16.8428 270.316 16.34 270.768 15.958C271.22 15.5759 271.854 15.3547 272.648 15.2943L274.91 15.1133V14.8821C274.91 14.4296 274.829 14.0676 274.668 13.8163C274.507 13.5548 274.286 13.3739 274.015 13.2733C273.743 13.1728 273.432 13.1124 273.09 13.1124C272.487 13.1124 272.015 13.2431 271.683 13.4945C271.351 13.7459 271.19 14.1079 271.19 14.5704H270.296C270.296 14.1079 270.416 13.7057 270.647 13.3638C270.879 13.0219 271.21 12.7605 271.643 12.5695C272.065 12.3784 272.557 12.2879 273.12 12.2879C273.683 12.2879 274.125 12.3784 274.538 12.5594C274.94 12.7404 275.271 13.0219 275.513 13.4141C275.754 13.7962 275.875 14.2888 275.875 14.8921V19.3263H275.05L274.92 18.1197C274.709 18.5521 274.387 18.894 273.934 19.1353C273.482 19.3766 272.969 19.4973 272.396 19.4973H272.407ZM272.638 18.7029C273.362 18.7029 273.924 18.4717 274.327 18.0091C274.719 17.5466 274.92 16.9433 274.92 16.2093V15.8373L272.889 15.9982C272.246 16.0585 271.783 16.2194 271.502 16.4808C271.22 16.7422 271.08 17.064 271.08 17.4461C271.08 17.8583 271.22 18.1801 271.502 18.3912C271.783 18.6024 272.165 18.713 272.638 18.713V18.7029Z" fill="white"/>
<path d="M276.588 12.4689H280.298V13.2934H276.588V12.4689ZM278.931 19.3263H277.966V10.3071H278.931V19.3364V19.3263Z" fill="white"/>
<path d="M283.072 19.4973C282.348 19.4973 281.775 19.3062 281.363 18.9342C280.951 18.5521 280.75 18.0695 280.75 17.4762C280.75 16.8428 280.981 16.34 281.434 15.958C281.886 15.5759 282.519 15.3547 283.313 15.2943L285.575 15.1133V14.8821C285.575 14.4296 285.495 14.0676 285.334 13.8163C285.173 13.5548 284.952 13.3739 284.68 13.2733C284.409 13.1728 284.097 13.1124 283.756 13.1124C283.152 13.1124 282.68 13.2431 282.348 13.4945C282.017 13.7459 281.856 14.1079 281.856 14.5704H280.961C280.961 14.1079 281.082 13.7057 281.313 13.3638C281.544 13.0219 281.876 12.7605 282.308 12.5695C282.73 12.3784 283.223 12.2879 283.786 12.2879C284.349 12.2879 284.791 12.3784 285.203 12.5594C285.605 12.7404 285.937 13.0219 286.178 13.4141C286.419 13.7962 286.54 14.2888 286.54 14.8921V19.3263H285.716L285.585 18.1197C285.374 18.5521 285.052 18.894 284.6 19.1353C284.148 19.3766 283.635 19.4973 283.062 19.4973H283.072ZM283.303 18.7029C284.027 18.7029 284.59 18.4717 284.992 18.0091C285.384 17.5466 285.585 16.9433 285.585 16.2093V15.8373L283.555 15.9982C282.911 16.0585 282.449 16.2194 282.167 16.4808C281.886 16.7422 281.745 17.064 281.745 17.4461C281.745 17.8583 281.886 18.1801 282.167 18.3912C282.449 18.6024 282.831 18.713 283.303 18.713V18.7029Z" fill="white"/>
<path d="M288.983 19.4872C288.751 19.4872 288.54 19.4068 288.359 19.2358C288.178 19.0649 288.088 18.8638 288.088 18.6225C288.088 18.3812 288.178 18.17 288.359 17.989C288.54 17.8181 288.751 17.7276 288.983 17.7276C289.214 17.7276 289.435 17.8181 289.616 17.989C289.787 18.16 289.877 18.3711 289.877 18.6225C289.877 18.8739 289.787 19.0649 289.616 19.2358C289.445 19.4068 289.234 19.4872 288.983 19.4872Z" fill="white"/>
<path d="M225.131 28.8181C225.131 28.255 225.271 27.7623 225.553 27.34C225.834 26.9177 226.237 26.5859 226.739 26.3547C227.252 26.1134 227.845 26.0027 228.528 26.0027C229.142 26.0027 229.674 26.1133 230.137 26.3245C230.599 26.5357 230.961 26.8574 231.232 27.2596C231.504 27.6618 231.665 28.1545 231.715 28.7176H230.68C230.619 28.1545 230.408 27.7121 230.026 27.3903C229.644 27.0786 229.142 26.9177 228.508 26.9177C227.805 26.9177 227.232 27.0887 226.789 27.4305C226.357 27.7724 226.136 28.2249 226.136 28.808C226.136 29.2505 226.267 29.6225 226.528 29.904C226.789 30.1956 227.191 30.4068 227.714 30.5375L229.453 30.9598C230.247 31.1508 230.851 31.4625 231.253 31.915C231.655 32.3675 231.866 32.9305 231.866 33.6243C231.866 34.1974 231.725 34.7102 231.444 35.1426C231.162 35.575 230.76 35.9168 230.237 36.1481C229.715 36.3894 229.111 36.5 228.408 36.5C227.754 36.5 227.181 36.3894 226.669 36.1783C226.166 35.957 225.764 35.6453 225.483 35.2431C225.191 34.841 225.03 34.3583 224.98 33.8154H226.025C226.056 34.3583 226.287 34.7806 226.719 35.0923C227.151 35.4141 227.714 35.5649 228.408 35.5649C229.152 35.5649 229.745 35.394 230.187 35.0521C230.629 34.7102 230.851 34.2578 230.851 33.6746C230.851 33.2121 230.72 32.84 230.458 32.5485C230.197 32.2569 229.795 32.0457 229.252 31.915L227.533 31.4927C226.739 31.3017 226.136 30.9899 225.724 30.5375C225.312 30.085 225.111 29.5119 225.111 28.8181H225.131Z" fill="white"/>
<path d="M234.118 36.3291H233.143V29.4717H233.997L234.138 30.7587L233.997 30.7185C234.138 30.2861 234.409 29.9342 234.801 29.6728C235.193 29.4113 235.656 29.2806 236.178 29.2806C236.792 29.2806 237.304 29.4516 237.716 29.7834C238.129 30.1152 238.39 30.5777 238.5 31.1508H238.289C238.38 30.5777 238.641 30.1152 239.063 29.7834C239.486 29.4516 240.008 29.2806 240.642 29.2806C241.375 29.2806 241.968 29.5018 242.431 29.9644C242.883 30.4168 243.114 31.0402 243.114 31.8346V36.3291H242.17V32.0357C242.17 31.4525 242.019 30.9899 241.717 30.6581C241.416 30.3263 241.003 30.1654 240.471 30.1654C240.089 30.1654 239.767 30.2559 239.496 30.4269C239.224 30.5978 239.013 30.8391 238.862 31.1307C238.712 31.4223 238.641 31.7441 238.641 32.096V36.3291H237.676V32.0256C237.676 31.4424 237.525 30.9899 237.214 30.6682C236.902 30.3464 236.49 30.1856 235.977 30.1856C235.595 30.1856 235.274 30.266 234.992 30.4369C234.711 30.6079 234.5 30.8391 234.359 31.1207C234.208 31.4123 234.138 31.724 234.138 32.0759V36.3291H234.118Z" fill="white"/>
<path d="M246.683 36.5C245.959 36.5 245.386 36.309 244.974 35.9369C244.562 35.5649 244.361 35.0722 244.361 34.479C244.361 33.8455 244.592 33.3428 245.044 32.9607C245.497 32.5786 246.13 32.3574 246.924 32.2971L249.186 32.1161V31.8848C249.186 31.4324 249.106 31.0704 248.945 30.819C248.784 30.5576 248.563 30.3766 248.291 30.2761C248.02 30.1755 247.708 30.1152 247.366 30.1152C246.763 30.1152 246.291 30.2459 245.959 30.4973C245.627 30.7486 245.467 31.1106 245.467 31.5731H244.572C244.572 31.1106 244.693 30.7084 244.924 30.3665C245.155 30.0247 245.487 29.7633 245.919 29.5722C246.341 29.3812 246.834 29.2907 247.397 29.2907C247.96 29.2907 248.402 29.3812 248.814 29.5622C249.216 29.7431 249.548 30.0247 249.789 30.4168C250.03 30.7989 250.151 31.2916 250.151 31.8949V36.3291H249.327L249.196 35.1225C248.985 35.5548 248.663 35.8967 248.211 36.138C247.759 36.3793 247.246 36.5 246.673 36.5H246.683ZM246.914 35.7057C247.638 35.7057 248.201 35.4744 248.603 35.0119C248.995 34.5494 249.196 33.9461 249.196 33.2121V32.84L247.165 33.0009C246.522 33.0612 246.06 33.2221 245.778 33.4836C245.497 33.745 245.356 34.0667 245.356 34.4488C245.356 34.8611 245.497 35.1828 245.778 35.394C246.06 35.6051 246.442 35.7157 246.914 35.7157V35.7057Z" fill="white"/>
<path d="M255.338 29.3912V30.266H254.795C254.162 30.266 253.659 30.457 253.287 30.8492C252.915 31.2313 252.724 31.7642 252.724 32.4177V36.3291H251.749V29.4717H252.674L252.754 30.819H252.654C252.744 30.3766 252.975 30.0146 253.347 29.7331C253.719 29.4516 254.162 29.3108 254.694 29.3108C254.795 29.3108 254.905 29.3108 255.006 29.3208C255.106 29.3309 255.217 29.351 255.328 29.3812L255.338 29.3912Z" fill="white"/>
<path d="M255.81 29.4717H259.519V30.2962H255.81V29.4717ZM258.142 36.3291H257.177V27.2998H258.142V36.3291Z" fill="white"/>
<path d="M263.249 36.5C262.586 36.5 262.003 36.3492 261.5 36.0475C260.997 35.7459 260.605 35.3236 260.314 34.7907C260.032 34.2477 259.892 33.6243 259.892 32.9104C259.892 32.1965 260.032 31.5731 260.314 31.0302C260.595 30.4872 260.977 30.0649 261.47 29.7532C261.962 29.4415 262.535 29.2907 263.189 29.2907C263.842 29.2907 264.355 29.4314 264.827 29.7029C265.3 29.9744 265.662 30.3565 265.913 30.8391C266.174 31.3218 266.305 31.8949 266.305 32.5484V33.0311H260.444L260.475 32.3172H265.33C265.33 31.6536 265.129 31.1207 264.747 30.7285C264.355 30.3263 263.842 30.1252 263.199 30.1252C262.726 30.1252 262.314 30.2358 261.962 30.447C261.611 30.6682 261.339 30.9698 261.148 31.372C260.957 31.7742 260.867 32.2468 260.867 32.7998C260.867 33.7048 261.078 34.4086 261.5 34.9113C261.922 35.4141 262.515 35.6655 263.289 35.6655C263.842 35.6655 264.305 35.5448 264.666 35.3135C265.028 35.0823 265.27 34.7304 265.39 34.2779H266.325C266.144 34.9918 265.792 35.5448 265.28 35.9269C264.757 36.309 264.093 36.5 263.279 36.5H263.249Z" fill="white"/>
<path d="M271.079 29.3912V30.266H270.537C269.903 30.266 269.401 30.457 269.029 30.8492C268.657 31.2313 268.466 31.7642 268.466 32.4177V36.3291H267.491V29.4717H268.416L268.496 30.819H268.395C268.486 30.3766 268.717 30.0146 269.089 29.7331C269.461 29.4516 269.903 29.3108 270.436 29.3108C270.537 29.3108 270.647 29.3108 270.748 29.3208C270.848 29.3309 270.959 29.351 271.069 29.3812L271.079 29.3912Z" fill="white"/>
<path d="M279.946 36.4899C279.001 36.4899 278.176 36.2687 277.463 35.8263C276.749 35.3839 276.196 34.7806 275.794 33.9863C275.392 33.202 275.191 32.287 275.191 31.2514C275.191 30.2157 275.392 29.3007 275.804 28.5064C276.206 27.7221 276.779 27.1088 277.503 26.6664C278.227 26.224 279.061 26.0027 280.006 26.0027C280.74 26.0027 281.413 26.1435 282.006 26.415C282.599 26.6865 283.102 27.0786 283.504 27.5713C283.906 28.064 284.178 28.6572 284.308 29.3309H283.223C283.002 28.5969 282.609 28.0137 282.037 27.6015C281.464 27.1892 280.77 26.9781 279.966 26.9781C279.232 26.9781 278.579 27.1591 278.016 27.511C277.453 27.8629 277.02 28.3656 276.709 28.9991C276.397 29.6325 276.246 30.3867 276.246 31.2413C276.246 32.096 276.397 32.8199 276.709 33.4634C277.02 34.107 277.453 34.5996 278.016 34.9616C278.568 35.3135 279.222 35.4945 279.956 35.4945C280.76 35.4945 281.453 35.2934 282.057 34.8812C282.65 34.479 283.062 33.936 283.273 33.2623H284.359C284.208 33.8958 283.926 34.4488 283.504 34.9314C283.082 35.4141 282.569 35.7861 281.956 36.0576C281.343 36.3291 280.669 36.4598 279.946 36.4598V36.4899Z" fill="white"/>
<path d="M286.479 36.319H285.504V26.0027H286.479V30.6682C286.701 30.2559 287.012 29.9241 287.424 29.6728C287.837 29.4214 288.329 29.3007 288.902 29.3007C289.807 29.3007 290.47 29.5622 290.882 30.075C291.295 30.5878 291.506 31.2815 291.506 32.1463V36.3391H290.531V32.3574C290.531 31.8144 290.45 31.3921 290.299 31.0704C290.149 30.7587 289.937 30.5274 289.666 30.3867C289.395 30.2459 289.073 30.1856 288.721 30.1856C288.229 30.1856 287.816 30.2962 287.485 30.5073C287.153 30.7285 286.902 31.0101 286.731 31.3821C286.56 31.7541 286.479 32.1463 286.479 32.5987V36.3291V36.319Z" fill="white"/>
<path d="M292.622 32.9004C292.622 32.1965 292.772 31.5731 293.074 31.0302C293.376 30.4872 293.788 30.0649 294.32 29.7532C294.853 29.4415 295.446 29.2907 296.11 29.2907C296.773 29.2907 297.376 29.4415 297.899 29.7532C298.422 30.0649 298.834 30.4872 299.135 31.0302C299.437 31.5731 299.588 32.1965 299.588 32.9004C299.588 33.6042 299.437 34.2075 299.135 34.7505C298.834 35.2934 298.422 35.7258 297.899 36.0375C297.376 36.3492 296.773 36.5 296.11 36.5C295.446 36.5 294.853 36.3391 294.32 36.0375C293.788 35.7258 293.376 35.2934 293.074 34.7505C292.772 34.2075 292.622 33.5942 292.622 32.9004ZM293.617 32.8903C293.617 33.4333 293.727 33.9059 293.938 34.3181C294.15 34.7304 294.441 35.0521 294.813 35.2834C295.185 35.5146 295.617 35.6353 296.11 35.6353C296.602 35.6353 297.035 35.5146 297.406 35.2834C297.778 35.0521 298.07 34.7304 298.281 34.3181C298.492 33.9059 298.603 33.4333 298.603 32.8903C298.603 32.3474 298.492 31.8949 298.281 31.4826C298.07 31.0804 297.778 30.7587 297.406 30.5174C297.035 30.2861 296.602 30.1655 296.11 30.1655C295.617 30.1655 295.185 30.2861 294.813 30.5174C294.441 30.7587 294.15 31.0704 293.938 31.4826C293.727 31.8848 293.617 32.3574 293.617 32.8903Z" fill="white"/>
<path d="M301.276 27.5914C301.075 27.5914 300.905 27.521 300.764 27.3803C300.623 27.2395 300.553 27.0686 300.553 26.8675C300.553 26.6664 300.623 26.4954 300.764 26.3547C300.905 26.2038 301.075 26.1335 301.276 26.1335C301.478 26.1335 301.648 26.2038 301.789 26.3547C301.94 26.5055 302.01 26.6764 302.01 26.8675C302.01 27.0585 301.94 27.2395 301.789 27.3803C301.638 27.521 301.467 27.5914 301.276 27.5914ZM300.794 36.3291V29.4717H301.769V36.3291H300.794Z" fill="white"/>
<path d="M302.976 32.9205C302.976 32.2066 303.116 31.5731 303.398 31.0302C303.679 30.4872 304.061 30.0649 304.564 29.7532C305.056 29.4415 305.639 29.2907 306.303 29.2907C307.097 29.2907 307.76 29.5018 308.303 29.9241C308.846 30.3464 309.188 30.9196 309.319 31.6234H308.344C308.213 31.1508 307.962 30.7889 307.59 30.5375C307.218 30.2861 306.795 30.1554 306.313 30.1554C305.861 30.1554 305.458 30.266 305.097 30.4973C304.735 30.7285 304.453 31.0402 304.252 31.4525C304.051 31.8647 303.951 32.3474 303.951 32.9004C303.951 33.4534 304.041 33.926 304.232 34.3282C304.423 34.7304 304.684 35.0521 305.036 35.2733C305.388 35.4945 305.79 35.6152 306.253 35.6152C306.775 35.6152 307.218 35.4845 307.6 35.223C307.982 34.9616 308.233 34.6097 308.364 34.1673H309.359C309.258 34.6298 309.057 35.032 308.766 35.3839C308.474 35.7358 308.112 36.0073 307.68 36.1984C307.248 36.3894 306.775 36.4899 306.253 36.4899C305.599 36.4899 305.036 36.3391 304.544 36.0475C304.061 35.7459 303.679 35.3336 303.408 34.7907C303.136 34.2477 302.996 33.6243 302.996 32.9104L302.976 32.9205Z" fill="white"/>
<path d="M313.35 36.5C312.686 36.5 312.103 36.3492 311.601 36.0475C311.098 35.7459 310.706 35.3236 310.414 34.7907C310.133 34.2477 309.992 33.6243 309.992 32.9104C309.992 32.1965 310.133 31.5731 310.414 31.0302C310.696 30.4872 311.078 30.0649 311.57 29.7532C312.063 29.4415 312.636 29.2907 313.289 29.2907C313.943 29.2907 314.455 29.4314 314.928 29.7029C315.39 29.9744 315.762 30.3565 316.013 30.8391C316.275 31.3218 316.406 31.8949 316.406 32.5484V33.0311H310.545L310.575 32.3172H315.43C315.43 31.6536 315.229 31.1207 314.847 30.7285C314.465 30.3364 313.943 30.1252 313.299 30.1252C312.827 30.1252 312.415 30.2358 312.063 30.447C311.711 30.6682 311.44 30.9698 311.249 31.372C311.058 31.7742 310.967 32.2468 310.967 32.7998C310.967 33.7048 311.178 34.4086 311.601 34.9113C312.023 35.4141 312.616 35.6655 313.39 35.6655C313.943 35.6655 314.405 35.5448 314.767 35.3135C315.129 35.0823 315.37 34.7304 315.491 34.2779H316.426C316.245 34.9918 315.893 35.5448 315.38 35.9269C314.857 36.309 314.194 36.5 313.38 36.5H313.35Z" fill="white"/>
<path d="M317.018 34.4086H317.953C317.953 34.8007 318.094 35.1225 318.375 35.3538C318.657 35.585 319.039 35.7057 319.511 35.7057C320.044 35.7057 320.456 35.5951 320.748 35.3839C321.039 35.1728 321.19 34.8812 321.19 34.5091C321.19 34.2276 321.11 33.9963 320.949 33.8254C320.788 33.6545 320.506 33.5238 320.094 33.4132L318.918 33.1115C318.325 32.9607 317.883 32.7294 317.591 32.4177C317.3 32.106 317.149 31.724 317.149 31.2514C317.149 30.8592 317.25 30.5073 317.461 30.2057C317.672 29.904 317.963 29.6828 318.335 29.5219C318.707 29.3611 319.139 29.2806 319.632 29.2806C320.125 29.2806 320.537 29.3611 320.888 29.532C321.25 29.7029 321.532 29.9442 321.733 30.2459C321.934 30.5576 322.044 30.9196 322.055 31.3419H321.11C321.11 30.9397 320.959 30.628 320.697 30.4068C320.436 30.1856 320.074 30.085 319.612 30.085C319.149 30.085 318.757 30.1856 318.496 30.3867C318.235 30.5878 318.104 30.8693 318.104 31.2413C318.104 31.7742 318.476 32.1261 319.22 32.3172L320.396 32.6188C320.989 32.7697 321.431 32.9909 321.703 33.2825C321.984 33.574 322.125 33.9662 322.125 34.4589C322.125 34.8611 322.014 35.223 321.803 35.5347C321.582 35.8464 321.281 36.0878 320.888 36.2486C320.496 36.4095 320.044 36.5 319.521 36.5C318.757 36.5 318.144 36.309 317.692 35.9269C317.24 35.5448 317.008 35.032 317.008 34.4086H317.018Z" fill="white"/>
<path d="M324.105 36.4899C323.874 36.4899 323.663 36.4095 323.482 36.2386C323.301 36.0676 323.21 35.8665 323.21 35.6252C323.21 35.3839 323.301 35.1728 323.482 34.9918C323.663 34.8208 323.874 34.7303 324.105 34.7303C324.336 34.7303 324.557 34.8208 324.738 34.9918C324.909 35.1627 325 35.3739 325 35.6252C325 35.8766 324.909 36.0676 324.738 36.2386C324.568 36.4095 324.356 36.4899 324.105 36.4899Z" fill="white"/>
</g>
<defs>
<linearGradient id="paint0_linear_8253_23" x1="143.375" y1="11.6364" x2="133.322" y2="23.0132" gradientUnits="userSpaceOnUse">
<stop stop-color="#80FF7C"/>
<stop offset="1" stop-color="#33CC99"/>
</linearGradient>
<clipPath id="clip0_8253_23">
<rect width="195" height="46" fill="white"/>
</clipPath>
<clipPath id="clip1_8253_23">
<rect width="100" height="27.5" fill="white" transform="translate(225 9)"/>
</clipPath>
</defs>
</svg>
